HIERARCHY
ROOT Pelvis
{
	OFFSET 0.000000 0.000000 0.000000
	CHANNELS 6 Xposition Yposition Zposition Xrotation Yrotation Zrotation
	JOINT LeftUpLeg_virtual
	{
		OFFSET 0.000000 0.000000 0.000000
		CHANNELS 3 Xrotation Yrotation Zrotation
		JOINT LeftUpLeg
		{
			OFFSET 18.735201 -5.666702 -4.541200
			CHANNELS 3 Xrotation Yrotation Zrotation
			JOINT LeftLeg
			{
				OFFSET -0.021200 -31.938179 0.493100
				CHANNELS 3 Xrotation Yrotation Zrotation
				JOINT LeftFoot
				{
					OFFSET 0.021200 -31.938179 -4.336299
					CHANNELS 3 Xrotation Yrotation Zrotation
					JOINT LeftToeBase
					{
						OFFSET 0.943001 -26.722000 15.023500
						CHANNELS 3 Xrotation Yrotation Zrotation
						End Site
						{
							OFFSET 0 0 0
						}
					}
				}
			}
		}
	}
	JOINT RightUpLeg_virtual
	{
		OFFSET 0.000000 0.000000 0.000000
		CHANNELS 3 Xrotation Yrotation Zrotation
		JOINT RightUpLeg
		{
			OFFSET -18.735201 -5.666702 -4.541200
			CHANNELS 3 Xrotation Yrotation Zrotation
			JOINT RightLeg
			{
				OFFSET 0.018946 -31.938133 0.493100
				CHANNELS 3 Xrotation Yrotation Zrotation
				JOINT RightFoot
				{
					OFFSET -0.018946 -31.938126 -4.336299
					CHANNELS 3 Xrotation Yrotation Zrotation
					JOINT RightToeBase
					{
						OFFSET -0.943001 -26.722004 15.023500
						CHANNELS 3 Xrotation Yrotation Zrotation
						End Site
						{
							OFFSET 0 0 0
						}
					}
				}
			}
		}
	}
	JOINT Hips_virtual
	{
		OFFSET 0.000000 0.000000 0.000000
		CHANNELS 3 Xrotation Yrotation Zrotation
		JOINT Hips
		{
			OFFSET -0.000000 -0.000000 -0.000000
			CHANNELS 3 Xrotation Yrotation Zrotation
			JOINT Spine
			{
				OFFSET 0.000000 10.199997 -0.299500
				CHANNELS 3 Xrotation Yrotation Zrotation
				JOINT Spine1
				{
					OFFSET 0.000000 11.900002 -1.516600
					CHANNELS 3 Xrotation Yrotation Zrotation
					JOINT Spine2
					{
						OFFSET 0.000000 13.600006 -2.842500
						CHANNELS 3 Xrotation Yrotation Zrotation
						JOINT Neck_virtual
						{
							OFFSET 0.000000 0.000000 0.000000
							CHANNELS 3 Xrotation Yrotation Zrotation
							JOINT Neck
							{
								OFFSET 0.000000 9.624100 -2.890100
								CHANNELS 3 Xrotation Yrotation Zrotation
								JOINT Head
								{
									OFFSET 0.000000 14.068802 -1.351900
									CHANNELS 3 Xrotation Yrotation Zrotation
									End Site
									{
										OFFSET 0 0 0
									}
								}
							}
						}
						JOINT LeftShoulder_virtual
						{
							OFFSET 0.000000 0.000000 0.000000
							CHANNELS 3 Xrotation Yrotation Zrotation
							JOINT LeftShoulder
							{
								OFFSET 15.263000 10.923401 -0.547700
								CHANNELS 3 Xrotation Yrotation Zrotation
								JOINT LeftArm
								{
									OFFSET 25.438599 -2.830597 -13.032500
									CHANNELS 3 Xrotation Yrotation Zrotation
									JOINT LeftForeArm
									{
										OFFSET 29.960503 0.000000 0.000000
										CHANNELS 3 Xrotation Yrotation Zrotation
										JOINT LeftHand
										{
											OFFSET 27.849251 0.000000 0.000000
											CHANNELS 3 Xrotation Yrotation Zrotation
											End Site
											{
												OFFSET 0 0 0
											}
										}
									}
								}
							}
						}
						JOINT RightShoulder_virtual
						{
							OFFSET 0.000000 0.000000 0.000000
							CHANNELS 3 Xrotation Yrotation Zrotation
							JOINT RightShoulder
							{
								OFFSET -15.263000 10.923401 -0.547700
								CHANNELS 3 Xrotation Yrotation Zrotation
								JOINT RightArm
								{
									OFFSET -25.438599 -2.830597 -13.032500
									CHANNELS 3 Xrotation Yrotation Zrotation
									JOINT RightForeArm
									{
										OFFSET -29.960503 0.000000 0.000000
										CHANNELS 3 Xrotation Yrotation Zrotation
										JOINT RightHand
										{
											OFFSET -27.849251 0.000000 0.000000
											CHANNELS 3 Xrotation Yrotation Zrotation
											End Site
											{
												OFFSET 0 0 0
											}
										}
									}
								}
							}
						}
					}
				}
			}
		}
	}
}
MOTION
Frames: 8
Frame Time: 0.03333333
-1.175071 16.235466 6.906624 0.000000 0.000000 0.000000 -87.565580 -3.321288 2.007192 -31.701732 17.782659 -7.213178 34.672216 -6.822886 -11.346290 -1.064384 7.863301 9.581494 0.000000 0.000000 0.000000 -87.565580 -3.321288 2.007192 -5.406501 -9.968168 -5.357909 -1.203991 -10.591970 4.728612 17.742350 -2.973198 29.770435 0.000000 0.000000 0.000000 -87.565580 -3.321288 2.007192 0.000000 0.000000 0.000000 0.697895 1.251725 -4.081475 -2.712463 0.550123 0.069934 0.000000 0.000000 0.000000 -2.709993 0.572753 0.085568 1.875886 -0.066753 0.080354 0.000000 0.000000 0.000000 -2.709993 0.572753 0.085568 1.279309 -13.498956 -1.883384 20.483964 -1.014537 -70.993464 -179.999978 -42.508509 -179.999991 0.000000 0.000000 0.000000 -2.709993 0.572753 0.085568 0.515810 6.973515 0.064737 15.875310 6.901687 66.846501 179.999991 46.911980 179.999991 0.000000 0.000000 0.000000 
-1.174933 16.234825 6.906662 0.000000 0.000000 0.000000 -87.569930 -3.322135 2.005605 -31.697422 17.780214 -7.210731 34.668702 -6.823334 -11.345621 -1.056202 7.858716 9.568549 0.000000 0.000000 0.000000 -87.569930 -3.322135 2.005605 -5.407716 -9.970299 -5.356055 -1.203920 -10.591690 4.728054 17.743778 -2.977046 29.766094 0.000000 0.000000 0.000000 -87.569930 -3.322135 2.005605 0.000000 0.000000 0.000000 0.705053 1.260645 -4.076750 -2.713545 0.552117 0.068063 0.000000 0.000000 0.000000 -2.711030 0.574704 0.083783 1.876714 -0.067526 0.080128 0.000000 0.000000 0.000000 -2.711030 0.574704 0.083783 1.279891 -13.506573 -1.882613 20.471325 -1.017554 -70.987140 -179.999964 -42.511801 -179.999964 0.000000 0.000000 0.000000 -2.711030 0.574704 0.083783 0.515557 6.970728 0.064773 15.874029 6.887361 66.861159 -179.999964 46.909555 179.999950 0.000000 0.000000 0.000000 
-1.174509 16.233871 6.906961 0.000000 0.000000 0.000000 -87.570176 -3.321414 2.003180 -31.698942 17.779167 -7.207330 34.666704 -6.824734 -11.345555 -1.047855 7.857824 9.560353 0.000000 0.000000 0.000000 -87.570176 -3.321414 2.003180 -5.408274 -9.972513 -5.354289 -1.205121 -10.591419 4.727397 17.745588 -2.980574 29.761911 0.000000 0.000000 0.000000 -87.570176 -3.321414 2.003180 0.000000 0.000000 0.000000 0.707782 1.266647 -4.070730 -2.714814 0.553227 0.066522 0.000000 0.000000 0.000000 -2.712317 0.575769 0.082299 1.877580 -0.068259 0.080087 0.000000 0.000000 0.000000 -2.712317 0.575769 0.082299 1.280317 -13.511005 -1.881051 20.463066 -1.020426 -70.982447 -179.999937 -42.514905 -179.999923 0.000000 0.000000 0.000000 -2.712317 0.575769 0.082299 0.515696 6.970293 0.064802 15.871027 6.874118 66.875270 -179.999964 46.906283 179.999964 0.000000 0.000000 0.000000 
-1.173862 16.232681 6.907417 0.000000 0.000000 0.000000 -87.568004 -3.318770 2.000952 -31.703993 17.779824 -7.205492 34.666851 -6.824766 -11.344481 -1.040522 7.858773 9.558343 0.000000 0.000000 0.000000 -87.568004 -3.318770 2.000952 -5.409089 -9.974737 -5.352821 -1.205889 -10.590871 4.726683 17.747009 -2.984021 29.758045 0.000000 0.000000 0.000000 -87.568004 -3.318770 2.000952 0.000000 0.000000 0.000000 0.707970 1.270129 -4.064553 -2.716207 0.553642 0.065173 0.000000 0.000000 0.000000 -2.713715 0.576141 0.080982 1.878464 -0.068930 0.080208 0.000000 0.000000 0.000000 -2.713715 0.576141 0.080982 1.280702 -13.512915 -1.878504 20.458069 -1.023375 -70.979401 179.999978 -42.518211 179.999978 0.000000 0.000000 0.000000 -2.713715 0.576141 0.080982 0.516048 6.971513 0.064826 15.867209 6.862417 66.888862 -179.999950 46.902824 179.999964 0.000000 0.000000 0.000000 
-1.173262 16.231430 6.907997 0.000000 0.000000 0.000000 -87.564849 -3.314296 1.999664 -31.709864 17.781385 -7.205025 34.667602 -6.823753 -11.343530 -1.034087 7.859699 9.559848 0.000000 0.000000 0.000000 -87.564849 -3.314296 1.999664 -5.409662 -9.976968 -5.351539 -1.207019 -10.590184 4.725971 17.748306 -2.987328 29.754370 0.000000 0.000000 0.000000 -87.564849 -3.314296 1.999664 0.000000 0.000000 0.000000 0.705962 1.270342 -4.058784 -2.717586 0.553202 0.064004 0.000000 0.000000 0.000000 -2.715124 0.575667 0.079816 1.879208 -0.069478 0.080534 0.000000 0.000000 0.000000 -2.715124 0.575667 0.079816 1.280970 -13.511730 -1.874327 20.456958 -1.026671 -70.978793 -179.999991 -42.522231 -179.999978 0.000000 0.000000 0.000000 -2.715124 0.575667 0.079816 0.516555 6.974772 0.064836 15.862886 6.852984 66.901908 -179.999978 46.899863 179.999991 0.000000 0.000000 0.000000 
-1.172981 16.230278 6.908432 0.000000 0.000000 0.000000 -87.562458 -3.309581 1.999642 -31.713839 17.783133 -7.206367 34.667916 -6.822366 -11.342461 -1.029437 7.860974 9.563247 0.000000 0.000000 0.000000 -87.562458 -3.309581 1.999642 -5.410376 -9.979239 -5.350392 -1.207891 -10.589287 4.725209 17.749305 -2.990606 29.750818 0.000000 0.000000 0.000000 -87.562458 -3.309581 1.999642 0.000000 0.000000 0.000000 0.702640 1.267129 -4.054124 -2.718913 0.551919 0.062977 0.000000 0.000000 0.000000 -2.716475 0.574362 0.078761 1.879759 -0.069849 0.081071 0.000000 0.000000 0.000000 -2.716475 0.574362 0.078761 1.281243 -13.507486 -1.867820 20.459586 -1.030548 -70.981443 -180.000005 -42.527439 -180.000005 0.000000 0.000000 0.000000 -2.716475 0.574362 0.078761 0.517108 6.980268 0.064835 15.858765 6.846169 66.914332 -179.999991 46.897940 -179.999991 0.000000 0.000000 0.000000 
-1.173380 16.229347 6.908592 0.000000 0.000000 0.000000 -87.561557 -3.306554 1.999007 -31.716547 17.783794 -7.206149 34.668032 -6.823296 -11.340985 -1.024998 7.862949 9.562313 0.000000 0.000000 0.000000 -87.561557 -3.306554 1.999007 -5.411131 -9.981526 -5.349058 -1.208641 -10.588288 4.724438 17.750171 -2.993858 29.747216 0.000000 0.000000 0.000000 -87.561557 -3.306554 1.999007 0.000000 0.000000 0.000000 0.699283 1.261163 -4.050835 -2.720158 0.550011 0.062057 0.000000 0.000000 0.000000 -2.717717 0.572448 0.077790 1.880181 -0.070006 0.081771 0.000000 0.000000 0.000000 -2.717717 0.572448 0.077790 1.281618 -13.501142 -1.858550 20.465250 -1.034980 -70.988000 -179.999991 -42.534084 -179.999978 0.000000 0.000000 0.000000 -2.717717 0.572448 0.077790 0.517622 6.987888 0.064818 15.855751 6.841795 66.926073 -179.999964 46.897459 179.999964 0.000000 0.000000 0.000000 
-1.173953 16.228424 6.908363 0.000000 0.000000 0.000000 -87.560416 -3.303699 1.998659 -31.718985 17.784540 -7.206394 34.667865 -6.823390 -11.339592 -1.021891 7.865089 9.563583 0.000000 0.000000 0.000000 -87.560416 -3.303699 1.998659 -5.411640 -9.983834 -5.347816 -1.210099 -10.587405 4.723643 17.751397 -2.996958 29.743527 0.000000 0.000000 0.000000 -87.560416 -3.303699 1.998659 0.000000 0.000000 0.000000 0.697118 1.253873 -4.049213 -2.721210 0.547887 0.061231 0.000000 0.000000 0.000000 -2.718772 0.570331 0.076904 1.880362 -0.069952 0.082529 0.000000 0.000000 0.000000 -2.718772 0.570331 0.076904 1.282203 -13.494482 -1.846567 20.472461 -1.039488 -70.998409 -179.999978 -42.542031 -179.999978 0.000000 0.000000 0.000000 -2.718772 0.570331 0.076904 0.518007 6.997110 0.064782 15.854601 6.839096 66.937056 -179.999978 46.898428 179.999978 0.000000 0.000000 0.000000 
